<mxfile host="app.diagrams.net" agent="Mozilla/5.0 (Windows NT 10.0; Win64; x64) AppleWebKit/537.36 (KHTML, like Gecko) Chrome/135.0.0.0 Safari/537.36" version="26.2.12">
  <diagram id="C5RBs43oDa-KdzZeNtuy" name="Page-1">
    <mxGraphModel dx="275" dy="527" grid="1" gridSize="10" guides="1" tooltips="1" connect="1" arrows="1" fold="1" page="1" pageScale="1" pageWidth="827" pageHeight="1169" math="0" shadow="0">
      <root>
        <mxCell id="WIyWlLk6GJQsqaUBKTNV-0" />
        <mxCell id="WIyWlLk6GJQsqaUBKTNV-1" parent="WIyWlLk6GJQsqaUBKTNV-0" />
        <mxCell id="KsDQxOze2smv7fGofb1H-2" value="" style="edgeStyle=orthogonalEdgeStyle;rounded=0;orthogonalLoop=1;jettySize=auto;html=1;" edge="1" parent="WIyWlLk6GJQsqaUBKTNV-1" source="KsDQxOze2smv7fGofb1H-0" target="KsDQxOze2smv7fGofb1H-1">
          <mxGeometry relative="1" as="geometry" />
        </mxCell>
        <mxCell id="KsDQxOze2smv7fGofb1H-0" value="inicio" style="ellipse;whiteSpace=wrap;html=1;aspect=fixed;" vertex="1" parent="WIyWlLk6GJQsqaUBKTNV-1">
          <mxGeometry x="220" y="60" width="80" height="80" as="geometry" />
        </mxCell>
        <mxCell id="KsDQxOze2smv7fGofb1H-4" value="" style="edgeStyle=orthogonalEdgeStyle;rounded=0;orthogonalLoop=1;jettySize=auto;html=1;" edge="1" parent="WIyWlLk6GJQsqaUBKTNV-1" source="KsDQxOze2smv7fGofb1H-1" target="KsDQxOze2smv7fGofb1H-3">
          <mxGeometry relative="1" as="geometry" />
        </mxCell>
        <mxCell id="KsDQxOze2smv7fGofb1H-1" value="mostrar mensaje: &quot;por favor ingrese una palabra&quot;" style="shape=parallelogram;perimeter=parallelogramPerimeter;whiteSpace=wrap;html=1;fixedSize=1;fillColor=#f0a30a;fontColor=#000000;strokeColor=#BD7000;" vertex="1" parent="WIyWlLk6GJQsqaUBKTNV-1">
          <mxGeometry x="140" y="180" width="240" height="80" as="geometry" />
        </mxCell>
        <mxCell id="KsDQxOze2smv7fGofb1H-6" value="" style="edgeStyle=orthogonalEdgeStyle;rounded=0;orthogonalLoop=1;jettySize=auto;html=1;" edge="1" parent="WIyWlLk6GJQsqaUBKTNV-1" source="KsDQxOze2smv7fGofb1H-3" target="KsDQxOze2smv7fGofb1H-5">
          <mxGeometry relative="1" as="geometry" />
        </mxCell>
        <mxCell id="KsDQxOze2smv7fGofb1H-3" value="variable cantidad_letras asignarle longitud de palabras_ingresada" style="rounded=1;whiteSpace=wrap;html=1;fillColor=#dae8fc;gradientColor=#7ea6e0;strokeColor=#6c8ebf;" vertex="1" parent="WIyWlLk6GJQsqaUBKTNV-1">
          <mxGeometry x="180" y="300" width="160" height="90" as="geometry" />
        </mxCell>
        <mxCell id="KsDQxOze2smv7fGofb1H-8" value="" style="edgeStyle=orthogonalEdgeStyle;rounded=0;orthogonalLoop=1;jettySize=auto;html=1;" edge="1" parent="WIyWlLk6GJQsqaUBKTNV-1" source="KsDQxOze2smv7fGofb1H-5" target="KsDQxOze2smv7fGofb1H-7">
          <mxGeometry relative="1" as="geometry" />
        </mxCell>
        <mxCell id="KsDQxOze2smv7fGofb1H-5" value="mostrar mensaje: &quot;la palabra tiene &quot;, cantidad_letras, &quot; letras.&quot;" style="shape=parallelogram;perimeter=parallelogramPerimeter;whiteSpace=wrap;html=1;fixedSize=1;rounded=1;fillColor=#f0a30a;fontColor=#000000;strokeColor=#BD7000;" vertex="1" parent="WIyWlLk6GJQsqaUBKTNV-1">
          <mxGeometry x="150" y="420" width="220" height="110" as="geometry" />
        </mxCell>
        <mxCell id="KsDQxOze2smv7fGofb1H-7" value="fin" style="ellipse;whiteSpace=wrap;html=1;rounded=1;" vertex="1" parent="WIyWlLk6GJQsqaUBKTNV-1">
          <mxGeometry x="220" y="570" width="80" height="80" as="geometry" />
        </mxCell>
      </root>
    </mxGraphModel>
  </diagram>
</mxfile>
